<?xml version="1.0" encoding="utf-8" standalone="no"?>
<!DOCTYPE svg PUBLIC "-//W3C//DTD SVG 1.1//EN"
  "http://www.w3.org/Graphics/SVG/1.1/DTD/svg11.dtd">
<!-- Created with matplotlib (http://matplotlib.org/) -->
<svg height="432pt" version="1.1" viewBox="0 0 432 432" width="432pt" xmlns="http://www.w3.org/2000/svg" xmlns:xlink="http://www.w3.org/1999/xlink">
 <defs>
  <style type="text/css">
*{stroke-linecap:butt;stroke-linejoin:round;}
  </style>
 </defs>
 <g id="figure_1">
  <g id="patch_1">
   <path d="M 0 432 
L 432 432 
L 432 0 
L 0 0 
z
" style="fill:#ffffff;"/>
  </g>
  <g id="axes_1">
   <g id="patch_2">
    <path d="M 54 384.48 
L 388.8 384.48 
L 388.8 51.84 
L 54 51.84 
z
" style="fill:#ffffff;"/>
   </g>
   <g id="PathCollection_1">
    <defs>
     <path d="M 0 3 
C 0.795609 3 1.55874 2.683901 2.12132 2.12132 
C 2.683901 1.55874 3 0.795609 3 0 
C 3 -0.795609 2.683901 -1.55874 2.12132 -2.12132 
C 1.55874 -2.683901 0.795609 -3 0 -3 
C -0.795609 -3 -1.55874 -2.683901 -2.12132 -2.12132 
C -2.683901 -1.55874 -3 -0.795609 -3 0 
C -3 0.795609 -2.683901 1.55874 -2.12132 2.12132 
C -1.55874 2.683901 -0.795609 3 0 3 
z
" id="mf425dc1b64" style="stroke:#1f77b4;"/>
    </defs>
    <g clip-path="url(#p4370bec73f)">
     <use style="fill:#1f77b4;stroke:#1f77b4;" x="277.98018" xlink:href="#mf425dc1b64" y="222.103388"/>
     <use style="fill:#1f77b4;stroke:#1f77b4;" x="148.620269" xlink:href="#mf425dc1b64" y="298.160383"/>
     <use style="fill:#1f77b4;stroke:#1f77b4;" x="275.142703" xlink:href="#mf425dc1b64" y="220.930172"/>
     <use style="fill:#1f77b4;stroke:#1f77b4;" x="196.918196" xlink:href="#mf425dc1b64" y="310.637507"/>
     <use style="fill:#1f77b4;stroke:#1f77b4;" x="209.48183" xlink:href="#mf425dc1b64" y="312.476647"/>
     <use style="fill:#1f77b4;stroke:#1f77b4;" x="197.866763" xlink:href="#mf425dc1b64" y="249.72041"/>
     <use style="fill:#1f77b4;stroke:#1f77b4;" x="225.8608" xlink:href="#mf425dc1b64" y="345.057001"/>
     <use style="fill:#1f77b4;stroke:#1f77b4;" x="201.286223" xlink:href="#mf425dc1b64" y="315.32233"/>
     <use style="fill:#1f77b4;stroke:#1f77b4;" x="92.243427" xlink:href="#mf425dc1b64" y="192.358517"/>
     <use style="fill:#1f77b4;stroke:#1f77b4;" x="155.408545" xlink:href="#mf425dc1b64" y="297.199336"/>
     <use style="fill:#1f77b4;stroke:#1f77b4;" x="188.584242" xlink:href="#mf425dc1b64" y="187.510024"/>
     <use style="fill:#1f77b4;stroke:#1f77b4;" x="103.076588" xlink:href="#mf425dc1b64" y="240.7169"/>
     <use style="fill:#1f77b4;stroke:#1f77b4;" x="228.595664" xlink:href="#mf425dc1b64" y="206.031143"/>
     <use style="fill:#1f77b4;stroke:#1f77b4;" x="173.935771" xlink:href="#mf425dc1b64" y="244.662588"/>
     <use style="fill:#1f77b4;stroke:#1f77b4;" x="139.251508" xlink:href="#mf425dc1b64" y="261.981794"/>
     <use style="fill:#1f77b4;stroke:#1f77b4;" x="242.273921" xlink:href="#mf425dc1b64" y="283.489759"/>
     <use style="fill:#1f77b4;stroke:#1f77b4;" x="160.667891" xlink:href="#mf425dc1b64" y="306.844525"/>
     <use style="fill:#1f77b4;stroke:#1f77b4;" x="199.376367" xlink:href="#mf425dc1b64" y="308.928262"/>
     <use style="fill:#1f77b4;stroke:#1f77b4;" x="287.10163" xlink:href="#mf425dc1b64" y="255.627573"/>
     <use style="fill:#1f77b4;stroke:#1f77b4;" x="149.247274" xlink:href="#mf425dc1b64" y="231.533031"/>
     <use style="fill:#1f77b4;stroke:#1f77b4;" x="143.929811" xlink:href="#mf425dc1b64" y="178.710152"/>
     <use style="fill:#1f77b4;stroke:#1f77b4;" x="213.513337" xlink:href="#mf425dc1b64" y="129.64517"/>
     <use style="fill:#1f77b4;stroke:#1f77b4;" x="186.568824" xlink:href="#mf425dc1b64" y="354.029163"/>
     <use style="fill:#1f77b4;stroke:#1f77b4;" x="165.137508" xlink:href="#mf425dc1b64" y="222.871499"/>
     <use style="fill:#1f77b4;stroke:#1f77b4;" x="253.011284" xlink:href="#mf425dc1b64" y="246.020423"/>
     <use style="fill:#1f77b4;stroke:#1f77b4;" x="221.943594" xlink:href="#mf425dc1b64" y="220.201891"/>
     <use style="fill:#1f77b4;stroke:#1f77b4;" x="239.109965" xlink:href="#mf425dc1b64" y="250.600847"/>
     <use style="fill:#1f77b4;stroke:#1f77b4;" x="256.380349" xlink:href="#mf425dc1b64" y="298.6442"/>
     <use style="fill:#1f77b4;stroke:#1f77b4;" x="207.347507" xlink:href="#mf425dc1b64" y="232.45567"/>
     <use style="fill:#1f77b4;stroke:#1f77b4;" x="193.206122" xlink:href="#mf425dc1b64" y="223.840539"/>
     <use style="fill:#1f77b4;stroke:#1f77b4;" x="159.782695" xlink:href="#mf425dc1b64" y="251.117395"/>
     <use style="fill:#1f77b4;stroke:#1f77b4;" x="69.400763" xlink:href="#mf425dc1b64" y="220.954108"/>
     <use style="fill:#1f77b4;stroke:#1f77b4;" x="138.246842" xlink:href="#mf425dc1b64" y="287.88671"/>
     <use style="fill:#1f77b4;stroke:#1f77b4;" x="271.434852" xlink:href="#mf425dc1b64" y="246.735316"/>
     <use style="fill:#1f77b4;stroke:#1f77b4;" x="373.399237" xlink:href="#mf425dc1b64" y="231.55324"/>
     <use style="fill:#1f77b4;stroke:#1f77b4;" x="205.51076" xlink:href="#mf425dc1b64" y="271.331763"/>
     <use style="fill:#1f77b4;stroke:#1f77b4;" x="118.080557" xlink:href="#mf425dc1b64" y="324.771387"/>
     <use style="fill:#1f77b4;stroke:#1f77b4;" x="163.16817" xlink:href="#mf425dc1b64" y="320.387816"/>
     <use style="fill:#1f77b4;stroke:#1f77b4;" x="171.549342" xlink:href="#mf425dc1b64" y="237.823422"/>
     <use style="fill:#1f77b4;stroke:#1f77b4;" x="227.784815" xlink:href="#mf425dc1b64" y="253.663838"/>
     <use style="fill:#1f77b4;stroke:#1f77b4;" x="156.678679" xlink:href="#mf425dc1b64" y="173.568386"/>
     <use style="fill:#1f77b4;stroke:#1f77b4;" x="279.292791" xlink:href="#mf425dc1b64" y="276.170986"/>
     <use style="fill:#1f77b4;stroke:#1f77b4;" x="243.233812" xlink:href="#mf425dc1b64" y="181.391907"/>
     <use style="fill:#1f77b4;stroke:#1f77b4;" x="214.721496" xlink:href="#mf425dc1b64" y="254.22742"/>
     <use style="fill:#1f77b4;stroke:#1f77b4;" x="356.51904" xlink:href="#mf425dc1b64" y="184.466083"/>
     <use style="fill:#1f77b4;stroke:#1f77b4;" x="165.862389" xlink:href="#mf425dc1b64" y="338.349037"/>
     <use style="fill:#1f77b4;stroke:#1f77b4;" x="140.360871" xlink:href="#mf425dc1b64" y="159.329244"/>
     <use style="fill:#1f77b4;stroke:#1f77b4;" x="268.734007" xlink:href="#mf425dc1b64" y="288.634032"/>
     <use style="fill:#1f77b4;stroke:#1f77b4;" x="288.245836" xlink:href="#mf425dc1b64" y="354.605992"/>
    </g>
   </g>
   <g id="PathCollection_2">
    <defs>
     <path d="M 0 3 
C 0.795609 3 1.55874 2.683901 2.12132 2.12132 
C 2.683901 1.55874 3 0.795609 3 0 
C 3 -0.795609 2.683901 -1.55874 2.12132 -2.12132 
C 1.55874 -2.683901 0.795609 -3 0 -3 
C -0.795609 -3 -1.55874 -2.683901 -2.12132 -2.12132 
C -2.683901 -1.55874 -3 -0.795609 -3 0 
C -3 0.795609 -2.683901 1.55874 -2.12132 2.12132 
C -1.55874 2.683901 -0.795609 3 0 3 
z
" id="m19de62fce4" style="stroke:#ff7f0e;"/>
    </defs>
    <g clip-path="url(#p4370bec73f)">
     <use style="fill:#ff7f0e;stroke:#ff7f0e;" x="222.82029" xlink:href="#m19de62fce4" y="220.320981"/>
     <use style="fill:#ff7f0e;stroke:#ff7f0e;" x="258.265161" xlink:href="#m19de62fce4" y="145.729664"/>
     <use style="fill:#ff7f0e;stroke:#ff7f0e;" x="95.650365" xlink:href="#m19de62fce4" y="283.050281"/>
     <use style="fill:#ff7f0e;stroke:#ff7f0e;" x="172.211548" xlink:href="#m19de62fce4" y="240.83643"/>
     <use style="fill:#ff7f0e;stroke:#ff7f0e;" x="254.337099" xlink:href="#m19de62fce4" y="271.51202"/>
     <use style="fill:#ff7f0e;stroke:#ff7f0e;" x="201.170626" xlink:href="#m19de62fce4" y="218.939938"/>
     <use style="fill:#ff7f0e;stroke:#ff7f0e;" x="184.184201" xlink:href="#m19de62fce4" y="231.241184"/>
     <use style="fill:#ff7f0e;stroke:#ff7f0e;" x="195.635629" xlink:href="#m19de62fce4" y="321.567752"/>
     <use style="fill:#ff7f0e;stroke:#ff7f0e;" x="154.735308" xlink:href="#m19de62fce4" y="296.126921"/>
     <use style="fill:#ff7f0e;stroke:#ff7f0e;" x="164.470943" xlink:href="#m19de62fce4" y="271.803701"/>
     <use style="fill:#ff7f0e;stroke:#ff7f0e;" x="118.211851" xlink:href="#m19de62fce4" y="131.451228"/>
     <use style="fill:#ff7f0e;stroke:#ff7f0e;" x="137.252594" xlink:href="#m19de62fce4" y="308.677816"/>
     <use style="fill:#ff7f0e;stroke:#ff7f0e;" x="191.551956" xlink:href="#m19de62fce4" y="184.680251"/>
     <use style="fill:#ff7f0e;stroke:#ff7f0e;" x="248.6868" xlink:href="#m19de62fce4" y="264.409279"/>
     <use style="fill:#ff7f0e;stroke:#ff7f0e;" x="308.876332" xlink:href="#m19de62fce4" y="260.776996"/>
     <use style="fill:#ff7f0e;stroke:#ff7f0e;" x="219.608157" xlink:href="#m19de62fce4" y="175.87031"/>
     <use style="fill:#ff7f0e;stroke:#ff7f0e;" x="214.438857" xlink:href="#m19de62fce4" y="247.738465"/>
     <use style="fill:#ff7f0e;stroke:#ff7f0e;" x="176.070283" xlink:href="#m19de62fce4" y="258.763793"/>
     <use style="fill:#ff7f0e;stroke:#ff7f0e;" x="166.606496" xlink:href="#m19de62fce4" y="224.171289"/>
     <use style="fill:#ff7f0e;stroke:#ff7f0e;" x="178.660087" xlink:href="#m19de62fce4" y="265.843733"/>
     <use style="fill:#ff7f0e;stroke:#ff7f0e;" x="229.245927" xlink:href="#m19de62fce4" y="359.847256"/>
     <use style="fill:#ff7f0e;stroke:#ff7f0e;" x="193.597879" xlink:href="#m19de62fce4" y="271.698601"/>
     <use style="fill:#ff7f0e;stroke:#ff7f0e;" x="332.066265" xlink:href="#m19de62fce4" y="261.000954"/>
     <use style="fill:#ff7f0e;stroke:#ff7f0e;" x="247.783745" xlink:href="#m19de62fce4" y="203.631324"/>
     <use style="fill:#ff7f0e;stroke:#ff7f0e;" x="173.114229" xlink:href="#m19de62fce4" y="271.300245"/>
     <use style="fill:#ff7f0e;stroke:#ff7f0e;" x="198.2579" xlink:href="#m19de62fce4" y="285.324672"/>
     <use style="fill:#ff7f0e;stroke:#ff7f0e;" x="208.219006" xlink:href="#m19de62fce4" y="293.887834"/>
     <use style="fill:#ff7f0e;stroke:#ff7f0e;" x="214.227998" xlink:href="#m19de62fce4" y="324.326521"/>
     <use style="fill:#ff7f0e;stroke:#ff7f0e;" x="238.172221" xlink:href="#m19de62fce4" y="301.321925"/>
     <use style="fill:#ff7f0e;stroke:#ff7f0e;" x="214.404126" xlink:href="#m19de62fce4" y="306.83896"/>
     <use style="fill:#ff7f0e;stroke:#ff7f0e;" x="170.221455" xlink:href="#m19de62fce4" y="243.879829"/>
     <use style="fill:#ff7f0e;stroke:#ff7f0e;" x="144.206947" xlink:href="#m19de62fce4" y="254.771192"/>
     <use style="fill:#ff7f0e;stroke:#ff7f0e;" x="222.579852" xlink:href="#m19de62fce4" y="236.105524"/>
     <use style="fill:#ff7f0e;stroke:#ff7f0e;" x="251.122191" xlink:href="#m19de62fce4" y="239.685574"/>
    </g>
   </g>
   <g id="PathCollection_3">
    <defs>
     <path d="M 0 3 
C 0.795609 3 1.55874 2.683901 2.12132 2.12132 
C 2.683901 1.55874 3 0.795609 3 0 
C 3 -0.795609 2.683901 -1.55874 2.12132 -2.12132 
C 1.55874 -2.683901 0.795609 -3 0 -3 
C -0.795609 -3 -1.55874 -2.683901 -2.12132 -2.12132 
C -2.683901 -1.55874 -3 -0.795609 -3 0 
C -3 0.795609 -2.683901 1.55874 -2.12132 2.12132 
C -1.55874 2.683901 -0.795609 3 0 3 
z
" id="m9c64764847" style="stroke:#2ca02c;"/>
    </defs>
    <g clip-path="url(#p4370bec73f)">
     <use style="fill:#2ca02c;stroke:#2ca02c;" x="276.523394" xlink:href="#m9c64764847" y="303.115398"/>
     <use style="fill:#2ca02c;stroke:#2ca02c;" x="115.281371" xlink:href="#m9c64764847" y="98.0962"/>
     <use style="fill:#2ca02c;stroke:#2ca02c;" x="285.767178" xlink:href="#m9c64764847" y="243.593837"/>
     <use style="fill:#2ca02c;stroke:#2ca02c;" x="131.61054" xlink:href="#m9c64764847" y="309.804725"/>
     <use style="fill:#2ca02c;stroke:#2ca02c;" x="359.818959" xlink:href="#m9c64764847" y="223.822677"/>
     <use style="fill:#2ca02c;stroke:#2ca02c;" x="223.689847" xlink:href="#m9c64764847" y="246.895613"/>
     <use style="fill:#2ca02c;stroke:#2ca02c;" x="216.556304" xlink:href="#m9c64764847" y="261.044979"/>
     <use style="fill:#2ca02c;stroke:#2ca02c;" x="219.679727" xlink:href="#m9c64764847" y="299.818759"/>
     <use style="fill:#2ca02c;stroke:#2ca02c;" x="150.221078" xlink:href="#m9c64764847" y="244.510219"/>
     <use style="fill:#2ca02c;stroke:#2ca02c;" x="170.182018" xlink:href="#m9c64764847" y="265.956543"/>
     <use style="fill:#2ca02c;stroke:#2ca02c;" x="92.618359" xlink:href="#m9c64764847" y="310.129145"/>
     <use style="fill:#2ca02c;stroke:#2ca02c;" x="125.979047" xlink:href="#m9c64764847" y="256.483091"/>
     <use style="fill:#2ca02c;stroke:#2ca02c;" x="203.717982" xlink:href="#m9c64764847" y="274.623054"/>
     <use style="fill:#2ca02c;stroke:#2ca02c;" x="184.893068" xlink:href="#m9c64764847" y="308.992379"/>
     <use style="fill:#2ca02c;stroke:#2ca02c;" x="349.236972" xlink:href="#m9c64764847" y="217.48537"/>
     <use style="fill:#2ca02c;stroke:#2ca02c;" x="142.86168" xlink:href="#m9c64764847" y="367.702682"/>
     <use style="fill:#2ca02c;stroke:#2ca02c;" x="151.77601" xlink:href="#m9c64764847" y="246.425941"/>
     <use style="fill:#2ca02c;stroke:#2ca02c;" x="252.232715" xlink:href="#m9c64764847" y="224.261934"/>
     <use style="fill:#2ca02c;stroke:#2ca02c;" x="171.785475" xlink:href="#m9c64764847" y="250.783894"/>
     <use style="fill:#2ca02c;stroke:#2ca02c;" x="292.100528" xlink:href="#m9c64764847" y="266.318213"/>
     <use style="fill:#2ca02c;stroke:#2ca02c;" x="188.323368" xlink:href="#m9c64764847" y="315.35505"/>
     <use style="fill:#2ca02c;stroke:#2ca02c;" x="239.831536" xlink:href="#m9c64764847" y="181.339673"/>
     <use style="fill:#2ca02c;stroke:#2ca02c;" x="133.083979" xlink:href="#m9c64764847" y="68.617318"/>
     <use style="fill:#2ca02c;stroke:#2ca02c;" x="214.452651" xlink:href="#m9c64764847" y="264.673341"/>
     <use style="fill:#2ca02c;stroke:#2ca02c;" x="202.81157" xlink:href="#m9c64764847" y="289.963125"/>
     <use style="fill:#2ca02c;stroke:#2ca02c;" x="167.24703" xlink:href="#m9c64764847" y="258.713765"/>
     <use style="fill:#2ca02c;stroke:#2ca02c;" x="159.264837" xlink:href="#m9c64764847" y="261.205878"/>
     <use style="fill:#2ca02c;stroke:#2ca02c;" x="261.352849" xlink:href="#m9c64764847" y="286.140813"/>
    </g>
   </g>
   <g id="matplotlib.axis_1">
    <g id="xtick_1">
     <g id="line2d_1">
      <defs>
       <path d="M 0 0 
L 0 3.5 
" id="m950cef251a" style="stroke:#000000;stroke-width:0.8;"/>
      </defs>
      <g>
       <use style="stroke:#000000;stroke-width:0.8;" x="89.760586" xlink:href="#m950cef251a" y="384.48"/>
      </g>
     </g>
     <g id="text_1">
      <!-- −4 -->
      <defs>
       <path d="M 10.59375 35.5 
L 73.1875 35.5 
L 73.1875 27.203125 
L 10.59375 27.203125 
z
" id="DejaVuSans-2212"/>
       <path d="M 37.796875 64.3125 
L 12.890625 25.390625 
L 37.796875 25.390625 
z
M 35.203125 72.90625 
L 47.609375 72.90625 
L 47.609375 25.390625 
L 58.015625 25.390625 
L 58.015625 17.1875 
L 47.609375 17.1875 
L 47.609375 0 
L 37.796875 0 
L 37.796875 17.1875 
L 4.890625 17.1875 
L 4.890625 26.703125 
z
" id="DejaVuSans-34"/>
      </defs>
      <g transform="translate(82.389493 399.078438)scale(0.1 -0.1)">
       <use xlink:href="#DejaVuSans-2212"/>
       <use x="83.789062" xlink:href="#DejaVuSans-34"/>
      </g>
     </g>
    </g>
    <g id="xtick_2">
     <g id="line2d_2">
      <g>
       <use style="stroke:#000000;stroke-width:0.8;" x="146.36065" xlink:href="#m950cef251a" y="384.48"/>
      </g>
     </g>
     <g id="text_2">
      <!-- −2 -->
      <defs>
       <path d="M 19.1875 8.296875 
L 53.609375 8.296875 
L 53.609375 0 
L 7.328125 0 
L 7.328125 8.296875 
Q 12.9375 14.109375 22.625 23.890625 
Q 32.328125 33.6875 34.8125 36.53125 
Q 39.546875 41.84375 41.421875 45.53125 
Q 43.3125 49.21875 43.3125 52.78125 
Q 43.3125 58.59375 39.234375 62.25 
Q 35.15625 65.921875 28.609375 65.921875 
Q 23.96875 65.921875 18.8125 64.3125 
Q 13.671875 62.703125 7.8125 59.421875 
L 7.8125 69.390625 
Q 13.765625 71.78125 18.9375 73 
Q 24.125 74.21875 28.421875 74.21875 
Q 39.75 74.21875 46.484375 68.546875 
Q 53.21875 62.890625 53.21875 53.421875 
Q 53.21875 48.921875 51.53125 44.890625 
Q 49.859375 40.875 45.40625 35.40625 
Q 44.1875 33.984375 37.640625 27.21875 
Q 31.109375 20.453125 19.1875 8.296875 
z
" id="DejaVuSans-32"/>
      </defs>
      <g transform="translate(138.989557 399.078438)scale(0.1 -0.1)">
       <use xlink:href="#DejaVuSans-2212"/>
       <use x="83.789062" xlink:href="#DejaVuSans-32"/>
      </g>
     </g>
    </g>
    <g id="xtick_3">
     <g id="line2d_3">
      <g>
       <use style="stroke:#000000;stroke-width:0.8;" x="202.960714" xlink:href="#m950cef251a" y="384.48"/>
      </g>
     </g>
     <g id="text_3">
      <!-- 0 -->
      <defs>
       <path d="M 31.78125 66.40625 
Q 24.171875 66.40625 20.328125 58.90625 
Q 16.5 51.421875 16.5 36.375 
Q 16.5 21.390625 20.328125 13.890625 
Q 24.171875 6.390625 31.78125 6.390625 
Q 39.453125 6.390625 43.28125 13.890625 
Q 47.125 21.390625 47.125 36.375 
Q 47.125 51.421875 43.28125 58.90625 
Q 39.453125 66.40625 31.78125 66.40625 
z
M 31.78125 74.21875 
Q 44.046875 74.21875 50.515625 64.515625 
Q 56.984375 54.828125 56.984375 36.375 
Q 56.984375 17.96875 50.515625 8.265625 
Q 44.046875 -1.421875 31.78125 -1.421875 
Q 19.53125 -1.421875 13.0625 8.265625 
Q 6.59375 17.96875 6.59375 36.375 
Q 6.59375 54.828125 13.0625 64.515625 
Q 19.53125 74.21875 31.78125 74.21875 
z
" id="DejaVuSans-30"/>
      </defs>
      <g transform="translate(199.779464 399.078438)scale(0.1 -0.1)">
       <use xlink:href="#DejaVuSans-30"/>
      </g>
     </g>
    </g>
    <g id="xtick_4">
     <g id="line2d_4">
      <g>
       <use style="stroke:#000000;stroke-width:0.8;" x="259.560779" xlink:href="#m950cef251a" y="384.48"/>
      </g>
     </g>
     <g id="text_4">
      <!-- 2 -->
      <g transform="translate(256.379529 399.078438)scale(0.1 -0.1)">
       <use xlink:href="#DejaVuSans-32"/>
      </g>
     </g>
    </g>
    <g id="xtick_5">
     <g id="line2d_5">
      <g>
       <use style="stroke:#000000;stroke-width:0.8;" x="316.160843" xlink:href="#m950cef251a" y="384.48"/>
      </g>
     </g>
     <g id="text_5">
      <!-- 4 -->
      <g transform="translate(312.979593 399.078438)scale(0.1 -0.1)">
       <use xlink:href="#DejaVuSans-34"/>
      </g>
     </g>
    </g>
    <g id="xtick_6">
     <g id="line2d_6">
      <g>
       <use style="stroke:#000000;stroke-width:0.8;" x="372.760907" xlink:href="#m950cef251a" y="384.48"/>
      </g>
     </g>
     <g id="text_6">
      <!-- 6 -->
      <defs>
       <path d="M 33.015625 40.375 
Q 26.375 40.375 22.484375 35.828125 
Q 18.609375 31.296875 18.609375 23.390625 
Q 18.609375 15.53125 22.484375 10.953125 
Q 26.375 6.390625 33.015625 6.390625 
Q 39.65625 6.390625 43.53125 10.953125 
Q 47.40625 15.53125 47.40625 23.390625 
Q 47.40625 31.296875 43.53125 35.828125 
Q 39.65625 40.375 33.015625 40.375 
z
M 52.59375 71.296875 
L 52.59375 62.3125 
Q 48.875 64.0625 45.09375 64.984375 
Q 41.3125 65.921875 37.59375 65.921875 
Q 27.828125 65.921875 22.671875 59.328125 
Q 17.53125 52.734375 16.796875 39.40625 
Q 19.671875 43.65625 24.015625 45.921875 
Q 28.375 48.1875 33.59375 48.1875 
Q 44.578125 48.1875 50.953125 41.515625 
Q 57.328125 34.859375 57.328125 23.390625 
Q 57.328125 12.15625 50.6875 5.359375 
Q 44.046875 -1.421875 33.015625 -1.421875 
Q 20.359375 -1.421875 13.671875 8.265625 
Q 6.984375 17.96875 6.984375 36.375 
Q 6.984375 53.65625 15.1875 63.9375 
Q 23.390625 74.21875 37.203125 74.21875 
Q 40.921875 74.21875 44.703125 73.484375 
Q 48.484375 72.75 52.59375 71.296875 
z
" id="DejaVuSans-36"/>
      </defs>
      <g transform="translate(369.579657 399.078438)scale(0.1 -0.1)">
       <use xlink:href="#DejaVuSans-36"/>
      </g>
     </g>
    </g>
   </g>
   <g id="matplotlib.axis_2">
    <g id="ytick_1">
     <g id="line2d_7">
      <defs>
       <path d="M 0 0 
L -3.5 0 
" id="mb5cb6c5d32" style="stroke:#000000;stroke-width:0.8;"/>
      </defs>
      <g>
       <use style="stroke:#000000;stroke-width:0.8;" x="54" xlink:href="#mb5cb6c5d32" y="320.677639"/>
      </g>
     </g>
     <g id="text_7">
      <!-- −2 -->
      <g transform="translate(32.257812 324.476858)scale(0.1 -0.1)">
       <use xlink:href="#DejaVuSans-2212"/>
       <use x="83.789062" xlink:href="#DejaVuSans-32"/>
      </g>
     </g>
    </g>
    <g id="ytick_2">
     <g id="line2d_8">
      <g>
       <use style="stroke:#000000;stroke-width:0.8;" x="54" xlink:href="#mb5cb6c5d32" y="255.209776"/>
      </g>
     </g>
     <g id="text_8">
      <!-- 0 -->
      <g transform="translate(40.6375 259.008995)scale(0.1 -0.1)">
       <use xlink:href="#DejaVuSans-30"/>
      </g>
     </g>
    </g>
    <g id="ytick_3">
     <g id="line2d_9">
      <g>
       <use style="stroke:#000000;stroke-width:0.8;" x="54" xlink:href="#mb5cb6c5d32" y="189.741912"/>
      </g>
     </g>
     <g id="text_9">
      <!-- 2 -->
      <g transform="translate(40.6375 193.541131)scale(0.1 -0.1)">
       <use xlink:href="#DejaVuSans-32"/>
      </g>
     </g>
    </g>
    <g id="ytick_4">
     <g id="line2d_10">
      <g>
       <use style="stroke:#000000;stroke-width:0.8;" x="54" xlink:href="#mb5cb6c5d32" y="124.274049"/>
      </g>
     </g>
     <g id="text_10">
      <!-- 4 -->
      <g transform="translate(40.6375 128.073268)scale(0.1 -0.1)">
       <use xlink:href="#DejaVuSans-34"/>
      </g>
     </g>
    </g>
    <g id="ytick_5">
     <g id="line2d_11">
      <g>
       <use style="stroke:#000000;stroke-width:0.8;" x="54" xlink:href="#mb5cb6c5d32" y="58.806185"/>
      </g>
     </g>
     <g id="text_11">
      <!-- 6 -->
      <g transform="translate(40.6375 62.605404)scale(0.1 -0.1)">
       <use xlink:href="#DejaVuSans-36"/>
      </g>
     </g>
    </g>
   </g>
   <g id="patch_3">
    <path d="M 54 384.48 
L 54 51.84 
" style="fill:none;stroke:#000000;stroke-linecap:square;stroke-linejoin:miter;stroke-width:0.8;"/>
   </g>
   <g id="patch_4">
    <path d="M 388.8 384.48 
L 388.8 51.84 
" style="fill:none;stroke:#000000;stroke-linecap:square;stroke-linejoin:miter;stroke-width:0.8;"/>
   </g>
   <g id="patch_5">
    <path d="M 54 384.48 
L 388.8 384.48 
" style="fill:none;stroke:#000000;stroke-linecap:square;stroke-linejoin:miter;stroke-width:0.8;"/>
   </g>
   <g id="patch_6">
    <path d="M 54 51.84 
L 388.8 51.84 
" style="fill:none;stroke:#000000;stroke-linecap:square;stroke-linejoin:miter;stroke-width:0.8;"/>
   </g>
   <g id="text_12">
    <!-- Clustering -->
    <defs>
     <path d="M 64.40625 67.28125 
L 64.40625 56.890625 
Q 59.421875 61.53125 53.78125 63.8125 
Q 48.140625 66.109375 41.796875 66.109375 
Q 29.296875 66.109375 22.65625 58.46875 
Q 16.015625 50.828125 16.015625 36.375 
Q 16.015625 21.96875 22.65625 14.328125 
Q 29.296875 6.6875 41.796875 6.6875 
Q 48.140625 6.6875 53.78125 8.984375 
Q 59.421875 11.28125 64.40625 15.921875 
L 64.40625 5.609375 
Q 59.234375 2.09375 53.4375 0.328125 
Q 47.65625 -1.421875 41.21875 -1.421875 
Q 24.65625 -1.421875 15.125 8.703125 
Q 5.609375 18.84375 5.609375 36.375 
Q 5.609375 53.953125 15.125 64.078125 
Q 24.65625 74.21875 41.21875 74.21875 
Q 47.75 74.21875 53.53125 72.484375 
Q 59.328125 70.75 64.40625 67.28125 
z
" id="DejaVuSans-43"/>
     <path d="M 9.421875 75.984375 
L 18.40625 75.984375 
L 18.40625 0 
L 9.421875 0 
z
" id="DejaVuSans-6c"/>
     <path d="M 8.5 21.578125 
L 8.5 54.6875 
L 17.484375 54.6875 
L 17.484375 21.921875 
Q 17.484375 14.15625 20.5 10.265625 
Q 23.53125 6.390625 29.59375 6.390625 
Q 36.859375 6.390625 41.078125 11.03125 
Q 45.3125 15.671875 45.3125 23.6875 
L 45.3125 54.6875 
L 54.296875 54.6875 
L 54.296875 0 
L 45.3125 0 
L 45.3125 8.40625 
Q 42.046875 3.421875 37.71875 1 
Q 33.40625 -1.421875 27.6875 -1.421875 
Q 18.265625 -1.421875 13.375 4.4375 
Q 8.5 10.296875 8.5 21.578125 
z
M 31.109375 56 
z
" id="DejaVuSans-75"/>
     <path d="M 44.28125 53.078125 
L 44.28125 44.578125 
Q 40.484375 46.53125 36.375 47.5 
Q 32.28125 48.484375 27.875 48.484375 
Q 21.1875 48.484375 17.84375 46.4375 
Q 14.5 44.390625 14.5 40.28125 
Q 14.5 37.15625 16.890625 35.375 
Q 19.28125 33.59375 26.515625 31.984375 
L 29.59375 31.296875 
Q 39.15625 29.25 43.1875 25.515625 
Q 47.21875 21.78125 47.21875 15.09375 
Q 47.21875 7.46875 41.1875 3.015625 
Q 35.15625 -1.421875 24.609375 -1.421875 
Q 20.21875 -1.421875 15.453125 -0.5625 
Q 10.6875 0.296875 5.421875 2 
L 5.421875 11.28125 
Q 10.40625 8.6875 15.234375 7.390625 
Q 20.0625 6.109375 24.8125 6.109375 
Q 31.15625 6.109375 34.5625 8.28125 
Q 37.984375 10.453125 37.984375 14.40625 
Q 37.984375 18.0625 35.515625 20.015625 
Q 33.0625 21.96875 24.703125 23.78125 
L 21.578125 24.515625 
Q 13.234375 26.265625 9.515625 29.90625 
Q 5.8125 33.546875 5.8125 39.890625 
Q 5.8125 47.609375 11.28125 51.796875 
Q 16.75 56 26.8125 56 
Q 31.78125 56 36.171875 55.265625 
Q 40.578125 54.546875 44.28125 53.078125 
z
" id="DejaVuSans-73"/>
     <path d="M 18.3125 70.21875 
L 18.3125 54.6875 
L 36.8125 54.6875 
L 36.8125 47.703125 
L 18.3125 47.703125 
L 18.3125 18.015625 
Q 18.3125 11.328125 20.140625 9.421875 
Q 21.96875 7.515625 27.59375 7.515625 
L 36.8125 7.515625 
L 36.8125 0 
L 27.59375 0 
Q 17.1875 0 13.234375 3.875 
Q 9.28125 7.765625 9.28125 18.015625 
L 9.28125 47.703125 
L 2.6875 47.703125 
L 2.6875 54.6875 
L 9.28125 54.6875 
L 9.28125 70.21875 
z
" id="DejaVuSans-74"/>
     <path d="M 56.203125 29.59375 
L 56.203125 25.203125 
L 14.890625 25.203125 
Q 15.484375 15.921875 20.484375 11.0625 
Q 25.484375 6.203125 34.421875 6.203125 
Q 39.59375 6.203125 44.453125 7.46875 
Q 49.3125 8.734375 54.109375 11.28125 
L 54.109375 2.78125 
Q 49.265625 0.734375 44.1875 -0.34375 
Q 39.109375 -1.421875 33.890625 -1.421875 
Q 20.796875 -1.421875 13.15625 6.1875 
Q 5.515625 13.8125 5.515625 26.8125 
Q 5.515625 40.234375 12.765625 48.109375 
Q 20.015625 56 32.328125 56 
Q 43.359375 56 49.78125 48.890625 
Q 56.203125 41.796875 56.203125 29.59375 
z
M 47.21875 32.234375 
Q 47.125 39.59375 43.09375 43.984375 
Q 39.0625 48.390625 32.421875 48.390625 
Q 24.90625 48.390625 20.390625 44.140625 
Q 15.875 39.890625 15.1875 32.171875 
z
" id="DejaVuSans-65"/>
     <path d="M 41.109375 46.296875 
Q 39.59375 47.171875 37.8125 47.578125 
Q 36.03125 48 33.890625 48 
Q 26.265625 48 22.1875 43.046875 
Q 18.109375 38.09375 18.109375 28.8125 
L 18.109375 0 
L 9.078125 0 
L 9.078125 54.6875 
L 18.109375 54.6875 
L 18.109375 46.1875 
Q 20.953125 51.171875 25.484375 53.578125 
Q 30.03125 56 36.53125 56 
Q 37.453125 56 38.578125 55.875 
Q 39.703125 55.765625 41.0625 55.515625 
z
" id="DejaVuSans-72"/>
     <path d="M 9.421875 54.6875 
L 18.40625 54.6875 
L 18.40625 0 
L 9.421875 0 
z
M 9.421875 75.984375 
L 18.40625 75.984375 
L 18.40625 64.59375 
L 9.421875 64.59375 
z
" id="DejaVuSans-69"/>
     <path d="M 54.890625 33.015625 
L 54.890625 0 
L 45.90625 0 
L 45.90625 32.71875 
Q 45.90625 40.484375 42.875 44.328125 
Q 39.84375 48.1875 33.796875 48.1875 
Q 26.515625 48.1875 22.3125 43.546875 
Q 18.109375 38.921875 18.109375 30.90625 
L 18.109375 0 
L 9.078125 0 
L 9.078125 54.6875 
L 18.109375 54.6875 
L 18.109375 46.1875 
Q 21.34375 51.125 25.703125 53.5625 
Q 30.078125 56 35.796875 56 
Q 45.21875 56 50.046875 50.171875 
Q 54.890625 44.34375 54.890625 33.015625 
z
" id="DejaVuSans-6e"/>
     <path d="M 45.40625 27.984375 
Q 45.40625 37.75 41.375 43.109375 
Q 37.359375 48.484375 30.078125 48.484375 
Q 22.859375 48.484375 18.828125 43.109375 
Q 14.796875 37.75 14.796875 27.984375 
Q 14.796875 18.265625 18.828125 12.890625 
Q 22.859375 7.515625 30.078125 7.515625 
Q 37.359375 7.515625 41.375 12.890625 
Q 45.40625 18.265625 45.40625 27.984375 
z
M 54.390625 6.78125 
Q 54.390625 -7.171875 48.1875 -13.984375 
Q 42 -20.796875 29.203125 -20.796875 
Q 24.46875 -20.796875 20.265625 -20.09375 
Q 16.0625 -19.390625 12.109375 -17.921875 
L 12.109375 -9.1875 
Q 16.0625 -11.328125 19.921875 -12.34375 
Q 23.78125 -13.375 27.78125 -13.375 
Q 36.625 -13.375 41.015625 -8.765625 
Q 45.40625 -4.15625 45.40625 5.171875 
L 45.40625 9.625 
Q 42.625 4.78125 38.28125 2.390625 
Q 33.9375 0 27.875 0 
Q 17.828125 0 11.671875 7.65625 
Q 5.515625 15.328125 5.515625 27.984375 
Q 5.515625 40.671875 11.671875 48.328125 
Q 17.828125 56 27.875 56 
Q 33.9375 56 38.28125 53.609375 
Q 42.625 51.21875 45.40625 46.390625 
L 45.40625 54.6875 
L 54.390625 54.6875 
z
" id="DejaVuSans-67"/>
    </defs>
    <g transform="translate(190.82625 45.84)scale(0.12 -0.12)">
     <use xlink:href="#DejaVuSans-43"/>
     <use x="69.824219" xlink:href="#DejaVuSans-6c"/>
     <use x="97.607422" xlink:href="#DejaVuSans-75"/>
     <use x="160.986328" xlink:href="#DejaVuSans-73"/>
     <use x="213.085938" xlink:href="#DejaVuSans-74"/>
     <use x="252.294922" xlink:href="#DejaVuSans-65"/>
     <use x="313.818359" xlink:href="#DejaVuSans-72"/>
     <use x="354.931641" xlink:href="#DejaVuSans-69"/>
     <use x="382.714844" xlink:href="#DejaVuSans-6e"/>
     <use x="446.09375" xlink:href="#DejaVuSans-67"/>
    </g>
   </g>
   <g id="legend_1">
    <g id="patch_7">
     <path d="M 295.040625 103.874375 
L 381.8 103.874375 
Q 383.8 103.874375 383.8 101.874375 
L 383.8 58.84 
Q 383.8 56.84 381.8 56.84 
L 295.040625 56.84 
Q 293.040625 56.84 293.040625 58.84 
L 293.040625 101.874375 
Q 293.040625 103.874375 295.040625 103.874375 
z
" style="fill:#ffffff;opacity:0.8;stroke:#cccccc;stroke-linejoin:miter;"/>
    </g>
    <g id="PathCollection_4">
     <g>
      <use style="fill:#1f77b4;stroke:#1f77b4;" x="307.040625" xlink:href="#mf425dc1b64" y="65.813437"/>
     </g>
    </g>
    <g id="text_13">
     <!-- bear -->
     <defs>
      <path d="M 48.6875 27.296875 
Q 48.6875 37.203125 44.609375 42.84375 
Q 40.53125 48.484375 33.40625 48.484375 
Q 26.265625 48.484375 22.1875 42.84375 
Q 18.109375 37.203125 18.109375 27.296875 
Q 18.109375 17.390625 22.1875 11.75 
Q 26.265625 6.109375 33.40625 6.109375 
Q 40.53125 6.109375 44.609375 11.75 
Q 48.6875 17.390625 48.6875 27.296875 
z
M 18.109375 46.390625 
Q 20.953125 51.265625 25.265625 53.625 
Q 29.59375 56 35.59375 56 
Q 45.5625 56 51.78125 48.09375 
Q 58.015625 40.1875 58.015625 27.296875 
Q 58.015625 14.40625 51.78125 6.484375 
Q 45.5625 -1.421875 35.59375 -1.421875 
Q 29.59375 -1.421875 25.265625 0.953125 
Q 20.953125 3.328125 18.109375 8.203125 
L 18.109375 0 
L 9.078125 0 
L 9.078125 75.984375 
L 18.109375 75.984375 
z
" id="DejaVuSans-62"/>
      <path d="M 34.28125 27.484375 
Q 23.390625 27.484375 19.1875 25 
Q 14.984375 22.515625 14.984375 16.5 
Q 14.984375 11.71875 18.140625 8.90625 
Q 21.296875 6.109375 26.703125 6.109375 
Q 34.1875 6.109375 38.703125 11.40625 
Q 43.21875 16.703125 43.21875 25.484375 
L 43.21875 27.484375 
z
M 52.203125 31.203125 
L 52.203125 0 
L 43.21875 0 
L 43.21875 8.296875 
Q 40.140625 3.328125 35.546875 0.953125 
Q 30.953125 -1.421875 24.3125 -1.421875 
Q 15.921875 -1.421875 10.953125 3.296875 
Q 6 8.015625 6 15.921875 
Q 6 25.140625 12.171875 29.828125 
Q 18.359375 34.515625 30.609375 34.515625 
L 43.21875 34.515625 
L 43.21875 35.40625 
Q 43.21875 41.609375 39.140625 45 
Q 35.0625 48.390625 27.6875 48.390625 
Q 23 48.390625 18.546875 47.265625 
Q 14.109375 46.140625 10.015625 43.890625 
L 10.015625 52.203125 
Q 14.9375 54.109375 19.578125 55.046875 
Q 24.21875 56 28.609375 56 
Q 40.484375 56 46.34375 49.84375 
Q 52.203125 43.703125 52.203125 31.203125 
z
" id="DejaVuSans-61"/>
     </defs>
     <g transform="translate(325.040625 68.438437)scale(0.1 -0.1)">
      <use xlink:href="#DejaVuSans-62"/>
      <use x="63.476562" xlink:href="#DejaVuSans-65"/>
      <use x="125" xlink:href="#DejaVuSans-61"/>
      <use x="186.279297" xlink:href="#DejaVuSans-72"/>
     </g>
    </g>
    <g id="PathCollection_5">
     <g>
      <use style="fill:#ff7f0e;stroke:#ff7f0e;" x="307.040625" xlink:href="#m19de62fce4" y="80.491562"/>
     </g>
    </g>
    <g id="text_14">
     <!-- toothbrush -->
     <defs>
      <path d="M 30.609375 48.390625 
Q 23.390625 48.390625 19.1875 42.75 
Q 14.984375 37.109375 14.984375 27.296875 
Q 14.984375 17.484375 19.15625 11.84375 
Q 23.34375 6.203125 30.609375 6.203125 
Q 37.796875 6.203125 41.984375 11.859375 
Q 46.1875 17.53125 46.1875 27.296875 
Q 46.1875 37.015625 41.984375 42.703125 
Q 37.796875 48.390625 30.609375 48.390625 
z
M 30.609375 56 
Q 42.328125 56 49.015625 48.375 
Q 55.71875 40.765625 55.71875 27.296875 
Q 55.71875 13.875 49.015625 6.21875 
Q 42.328125 -1.421875 30.609375 -1.421875 
Q 18.84375 -1.421875 12.171875 6.21875 
Q 5.515625 13.875 5.515625 27.296875 
Q 5.515625 40.765625 12.171875 48.375 
Q 18.84375 56 30.609375 56 
z
" id="DejaVuSans-6f"/>
      <path d="M 54.890625 33.015625 
L 54.890625 0 
L 45.90625 0 
L 45.90625 32.71875 
Q 45.90625 40.484375 42.875 44.328125 
Q 39.84375 48.1875 33.796875 48.1875 
Q 26.515625 48.1875 22.3125 43.546875 
Q 18.109375 38.921875 18.109375 30.90625 
L 18.109375 0 
L 9.078125 0 
L 9.078125 75.984375 
L 18.109375 75.984375 
L 18.109375 46.1875 
Q 21.34375 51.125 25.703125 53.5625 
Q 30.078125 56 35.796875 56 
Q 45.21875 56 50.046875 50.171875 
Q 54.890625 44.34375 54.890625 33.015625 
z
" id="DejaVuSans-68"/>
     </defs>
     <g transform="translate(325.040625 83.116562)scale(0.1 -0.1)">
      <use xlink:href="#DejaVuSans-74"/>
      <use x="39.208984" xlink:href="#DejaVuSans-6f"/>
      <use x="100.390625" xlink:href="#DejaVuSans-6f"/>
      <use x="161.572266" xlink:href="#DejaVuSans-74"/>
      <use x="200.78125" xlink:href="#DejaVuSans-68"/>
      <use x="264.160156" xlink:href="#DejaVuSans-62"/>
      <use x="327.636719" xlink:href="#DejaVuSans-72"/>
      <use x="368.75" xlink:href="#DejaVuSans-75"/>
      <use x="432.128906" xlink:href="#DejaVuSans-73"/>
      <use x="484.228516" xlink:href="#DejaVuSans-68"/>
     </g>
    </g>
    <g id="PathCollection_6">
     <g>
      <use style="fill:#2ca02c;stroke:#2ca02c;" x="307.040625" xlink:href="#m9c64764847" y="95.169687"/>
     </g>
    </g>
    <g id="text_15">
     <!-- scissors -->
     <defs>
      <path d="M 48.78125 52.59375 
L 48.78125 44.1875 
Q 44.96875 46.296875 41.140625 47.34375 
Q 37.3125 48.390625 33.40625 48.390625 
Q 24.65625 48.390625 19.8125 42.84375 
Q 14.984375 37.3125 14.984375 27.296875 
Q 14.984375 17.28125 19.8125 11.734375 
Q 24.65625 6.203125 33.40625 6.203125 
Q 37.3125 6.203125 41.140625 7.25 
Q 44.96875 8.296875 48.78125 10.40625 
L 48.78125 2.09375 
Q 45.015625 0.34375 40.984375 -0.53125 
Q 36.96875 -1.421875 32.421875 -1.421875 
Q 20.0625 -1.421875 12.78125 6.34375 
Q 5.515625 14.109375 5.515625 27.296875 
Q 5.515625 40.671875 12.859375 48.328125 
Q 20.21875 56 33.015625 56 
Q 37.15625 56 41.109375 55.140625 
Q 45.0625 54.296875 48.78125 52.59375 
z
" id="DejaVuSans-63"/>
     </defs>
     <g transform="translate(325.040625 97.794687)scale(0.1 -0.1)">
      <use xlink:href="#DejaVuSans-73"/>
      <use x="52.099609" xlink:href="#DejaVuSans-63"/>
      <use x="107.080078" xlink:href="#DejaVuSans-69"/>
      <use x="134.863281" xlink:href="#DejaVuSans-73"/>
      <use x="186.962891" xlink:href="#DejaVuSans-73"/>
      <use x="239.0625" xlink:href="#DejaVuSans-6f"/>
      <use x="300.244141" xlink:href="#DejaVuSans-72"/>
      <use x="341.357422" xlink:href="#DejaVuSans-73"/>
     </g>
    </g>
   </g>
  </g>
 </g>
 <defs>
  <clipPath id="p4370bec73f">
   <rect height="332.64" width="334.8" x="54" y="51.84"/>
  </clipPath>
 </defs>
</svg>
