<?xml version="1.0" encoding="UTF-8" standalone="no"?>
<!DOCTYPE svg PUBLIC "-//W3C//DTD SVG 1.1//EN"
 "http://www.w3.org/Graphics/SVG/1.1/DTD/svg11.dtd">
<!-- Generated by graphviz version 2.40.1 (20161225.0304)
 -->
<!-- Title: G Pages: 1 -->
<svg width="215pt" height="994pt"
 viewBox="0.00 0.00 215.00 994.00" xmlns="http://www.w3.org/2000/svg" xmlns:xlink="http://www.w3.org/1999/xlink">
<g id="graph0" class="graph" transform="scale(1 1) rotate(0) translate(4 990)">
<title>G</title>
<polygon fill="#ffffff" stroke="transparent" points="-4,4 -4,-990 211,-990 211,4 -4,4"/>
<!-- 140288528917448 -->
<g id="node1" class="node">
<title>140288528917448</title>
<polygon fill="none" stroke="#000000" points="41.5,-949.5 41.5,-985.5 165.5,-985.5 165.5,-949.5 41.5,-949.5"/>
<text text-anchor="middle" x="103.5" y="-963.8" font-family="Times,serif" font-size="14.00" fill="#000000">input_1: InputLayer</text>
</g>
<!-- 140287852389264 -->
<g id="node2" class="node">
<title>140287852389264</title>
<polygon fill="none" stroke="#000000" points="42.5,-876.5 42.5,-912.5 164.5,-912.5 164.5,-876.5 42.5,-876.5"/>
<text text-anchor="middle" x="103.5" y="-890.8" font-family="Times,serif" font-size="14.00" fill="#000000">conv2d_1: Conv2D</text>
</g>
<!-- 140288528917448&#45;&gt;140287852389264 -->
<g id="edge1" class="edge">
<title>140288528917448&#45;&gt;140287852389264</title>
<path fill="none" stroke="#000000" d="M103.5,-949.4551C103.5,-941.3828 103.5,-931.6764 103.5,-922.6817"/>
<polygon fill="#000000" stroke="#000000" points="107.0001,-922.5903 103.5,-912.5904 100.0001,-922.5904 107.0001,-922.5903"/>
</g>
<!-- 140287852388872 -->
<g id="node3" class="node">
<title>140287852388872</title>
<polygon fill="none" stroke="#000000" points="0,-803.5 0,-839.5 207,-839.5 207,-803.5 0,-803.5"/>
<text text-anchor="middle" x="103.5" y="-817.8" font-family="Times,serif" font-size="14.00" fill="#000000">max_pooling2d_1: MaxPooling2D</text>
</g>
<!-- 140287852389264&#45;&gt;140287852388872 -->
<g id="edge2" class="edge">
<title>140287852389264&#45;&gt;140287852388872</title>
<path fill="none" stroke="#000000" d="M103.5,-876.4551C103.5,-868.3828 103.5,-858.6764 103.5,-849.6817"/>
<polygon fill="#000000" stroke="#000000" points="107.0001,-849.5903 103.5,-839.5904 100.0001,-849.5904 107.0001,-849.5903"/>
</g>
<!-- 140287852389208 -->
<g id="node4" class="node">
<title>140287852389208</title>
<polygon fill="none" stroke="#000000" points="42.5,-730.5 42.5,-766.5 164.5,-766.5 164.5,-730.5 42.5,-730.5"/>
<text text-anchor="middle" x="103.5" y="-744.8" font-family="Times,serif" font-size="14.00" fill="#000000">conv2d_2: Conv2D</text>
</g>
<!-- 140287852388872&#45;&gt;140287852389208 -->
<g id="edge3" class="edge">
<title>140287852388872&#45;&gt;140287852389208</title>
<path fill="none" stroke="#000000" d="M103.5,-803.4551C103.5,-795.3828 103.5,-785.6764 103.5,-776.6817"/>
<polygon fill="#000000" stroke="#000000" points="107.0001,-776.5903 103.5,-766.5904 100.0001,-776.5904 107.0001,-776.5903"/>
</g>
<!-- 140287852532512 -->
<g id="node5" class="node">
<title>140287852532512</title>
<polygon fill="none" stroke="#000000" points="0,-657.5 0,-693.5 207,-693.5 207,-657.5 0,-657.5"/>
<text text-anchor="middle" x="103.5" y="-671.8" font-family="Times,serif" font-size="14.00" fill="#000000">max_pooling2d_2: MaxPooling2D</text>
</g>
<!-- 140287852389208&#45;&gt;140287852532512 -->
<g id="edge4" class="edge">
<title>140287852389208&#45;&gt;140287852532512</title>
<path fill="none" stroke="#000000" d="M103.5,-730.4551C103.5,-722.3828 103.5,-712.6764 103.5,-703.6817"/>
<polygon fill="#000000" stroke="#000000" points="107.0001,-703.5903 103.5,-693.5904 100.0001,-703.5904 107.0001,-703.5903"/>
</g>
<!-- 140287852535760 -->
<g id="node6" class="node">
<title>140287852535760</title>
<polygon fill="none" stroke="#000000" points="42.5,-584.5 42.5,-620.5 164.5,-620.5 164.5,-584.5 42.5,-584.5"/>
<text text-anchor="middle" x="103.5" y="-598.8" font-family="Times,serif" font-size="14.00" fill="#000000">conv2d_3: Conv2D</text>
</g>
<!-- 140287852532512&#45;&gt;140287852535760 -->
<g id="edge5" class="edge">
<title>140287852532512&#45;&gt;140287852535760</title>
<path fill="none" stroke="#000000" d="M103.5,-657.4551C103.5,-649.3828 103.5,-639.6764 103.5,-630.6817"/>
<polygon fill="#000000" stroke="#000000" points="107.0001,-630.5903 103.5,-620.5904 100.0001,-630.5904 107.0001,-630.5903"/>
</g>
<!-- 140287852147264 -->
<g id="node7" class="node">
<title>140287852147264</title>
<polygon fill="none" stroke="#000000" points="28,-511.5 28,-547.5 179,-547.5 179,-511.5 28,-511.5"/>
<text text-anchor="middle" x="103.5" y="-525.8" font-family="Times,serif" font-size="14.00" fill="#000000">encoder: MaxPooling2D</text>
</g>
<!-- 140287852535760&#45;&gt;140287852147264 -->
<g id="edge6" class="edge">
<title>140287852535760&#45;&gt;140287852147264</title>
<path fill="none" stroke="#000000" d="M103.5,-584.4551C103.5,-576.3828 103.5,-566.6764 103.5,-557.6817"/>
<polygon fill="#000000" stroke="#000000" points="107.0001,-557.5903 103.5,-547.5904 100.0001,-557.5904 107.0001,-557.5903"/>
</g>
<!-- 140287852148944 -->
<g id="node8" class="node">
<title>140287852148944</title>
<polygon fill="none" stroke="#000000" points="42.5,-438.5 42.5,-474.5 164.5,-474.5 164.5,-438.5 42.5,-438.5"/>
<text text-anchor="middle" x="103.5" y="-452.8" font-family="Times,serif" font-size="14.00" fill="#000000">conv2d_4: Conv2D</text>
</g>
<!-- 140287852147264&#45;&gt;140287852148944 -->
<g id="edge7" class="edge">
<title>140287852147264&#45;&gt;140287852148944</title>
<path fill="none" stroke="#000000" d="M103.5,-511.4551C103.5,-503.3828 103.5,-493.6764 103.5,-484.6817"/>
<polygon fill="#000000" stroke="#000000" points="107.0001,-484.5903 103.5,-474.5904 100.0001,-484.5904 107.0001,-484.5903"/>
</g>
<!-- 140287852202752 -->
<g id="node9" class="node">
<title>140287852202752</title>
<polygon fill="none" stroke="#000000" points=".5,-365.5 .5,-401.5 206.5,-401.5 206.5,-365.5 .5,-365.5"/>
<text text-anchor="middle" x="103.5" y="-379.8" font-family="Times,serif" font-size="14.00" fill="#000000">up_sampling2d_1: UpSampling2D</text>
</g>
<!-- 140287852148944&#45;&gt;140287852202752 -->
<g id="edge8" class="edge">
<title>140287852148944&#45;&gt;140287852202752</title>
<path fill="none" stroke="#000000" d="M103.5,-438.4551C103.5,-430.3828 103.5,-420.6764 103.5,-411.6817"/>
<polygon fill="#000000" stroke="#000000" points="107.0001,-411.5903 103.5,-401.5904 100.0001,-411.5904 107.0001,-411.5903"/>
</g>
<!-- 140287852201800 -->
<g id="node10" class="node">
<title>140287852201800</title>
<polygon fill="none" stroke="#000000" points="42.5,-292.5 42.5,-328.5 164.5,-328.5 164.5,-292.5 42.5,-292.5"/>
<text text-anchor="middle" x="103.5" y="-306.8" font-family="Times,serif" font-size="14.00" fill="#000000">conv2d_5: Conv2D</text>
</g>
<!-- 140287852202752&#45;&gt;140287852201800 -->
<g id="edge9" class="edge">
<title>140287852202752&#45;&gt;140287852201800</title>
<path fill="none" stroke="#000000" d="M103.5,-365.4551C103.5,-357.3828 103.5,-347.6764 103.5,-338.6817"/>
<polygon fill="#000000" stroke="#000000" points="107.0001,-338.5903 103.5,-328.5904 100.0001,-338.5904 107.0001,-338.5903"/>
</g>
<!-- 140287851809424 -->
<g id="node11" class="node">
<title>140287851809424</title>
<polygon fill="none" stroke="#000000" points=".5,-219.5 .5,-255.5 206.5,-255.5 206.5,-219.5 .5,-219.5"/>
<text text-anchor="middle" x="103.5" y="-233.8" font-family="Times,serif" font-size="14.00" fill="#000000">up_sampling2d_2: UpSampling2D</text>
</g>
<!-- 140287852201800&#45;&gt;140287851809424 -->
<g id="edge10" class="edge">
<title>140287852201800&#45;&gt;140287851809424</title>
<path fill="none" stroke="#000000" d="M103.5,-292.4551C103.5,-284.3828 103.5,-274.6764 103.5,-265.6817"/>
<polygon fill="#000000" stroke="#000000" points="107.0001,-265.5903 103.5,-255.5904 100.0001,-265.5904 107.0001,-265.5903"/>
</g>
<!-- 140287851807408 -->
<g id="node12" class="node">
<title>140287851807408</title>
<polygon fill="none" stroke="#000000" points="42.5,-146.5 42.5,-182.5 164.5,-182.5 164.5,-146.5 42.5,-146.5"/>
<text text-anchor="middle" x="103.5" y="-160.8" font-family="Times,serif" font-size="14.00" fill="#000000">conv2d_6: Conv2D</text>
</g>
<!-- 140287851809424&#45;&gt;140287851807408 -->
<g id="edge11" class="edge">
<title>140287851809424&#45;&gt;140287851807408</title>
<path fill="none" stroke="#000000" d="M103.5,-219.4551C103.5,-211.3828 103.5,-201.6764 103.5,-192.6817"/>
<polygon fill="#000000" stroke="#000000" points="107.0001,-192.5903 103.5,-182.5904 100.0001,-192.5904 107.0001,-192.5903"/>
</g>
<!-- 140287851943920 -->
<g id="node13" class="node">
<title>140287851943920</title>
<polygon fill="none" stroke="#000000" points=".5,-73.5 .5,-109.5 206.5,-109.5 206.5,-73.5 .5,-73.5"/>
<text text-anchor="middle" x="103.5" y="-87.8" font-family="Times,serif" font-size="14.00" fill="#000000">up_sampling2d_3: UpSampling2D</text>
</g>
<!-- 140287851807408&#45;&gt;140287851943920 -->
<g id="edge12" class="edge">
<title>140287851807408&#45;&gt;140287851943920</title>
<path fill="none" stroke="#000000" d="M103.5,-146.4551C103.5,-138.3828 103.5,-128.6764 103.5,-119.6817"/>
<polygon fill="#000000" stroke="#000000" points="107.0001,-119.5903 103.5,-109.5904 100.0001,-119.5904 107.0001,-119.5903"/>
</g>
<!-- 140287851943248 -->
<g id="node14" class="node">
<title>140287851943248</title>
<polygon fill="none" stroke="#000000" points="42.5,-.5 42.5,-36.5 164.5,-36.5 164.5,-.5 42.5,-.5"/>
<text text-anchor="middle" x="103.5" y="-14.8" font-family="Times,serif" font-size="14.00" fill="#000000">conv2d_7: Conv2D</text>
</g>
<!-- 140287851943920&#45;&gt;140287851943248 -->
<g id="edge13" class="edge">
<title>140287851943920&#45;&gt;140287851943248</title>
<path fill="none" stroke="#000000" d="M103.5,-73.4551C103.5,-65.3828 103.5,-55.6764 103.5,-46.6817"/>
<polygon fill="#000000" stroke="#000000" points="107.0001,-46.5903 103.5,-36.5904 100.0001,-46.5904 107.0001,-46.5903"/>
</g>
</g>
</svg>
