<?xml version="1.0" encoding="UTF-8" standalone="no"?>
<!DOCTYPE svg PUBLIC "-//W3C//DTD SVG 1.1//EN"
 "http://www.w3.org/Graphics/SVG/1.1/DTD/svg11.dtd">
<!-- Generated by graphviz version 2.40.1 (20161225.0304)
 -->
<!-- Title: G Pages: 1 -->
<svg width="242pt" height="556pt"
 viewBox="0.00 0.00 242.00 556.00" xmlns="http://www.w3.org/2000/svg" xmlns:xlink="http://www.w3.org/1999/xlink">
<g id="graph0" class="graph" transform="scale(1 1) rotate(0) translate(4 552)">
<title>G</title>
<polygon fill="#ffffff" stroke="transparent" points="-4,4 -4,-552 238,-552 238,4 -4,4"/>
<!-- 139854679067392 -->
<g id="node1" class="node">
<title>139854679067392</title>
<polygon fill="none" stroke="#000000" points="55,-511.5 55,-547.5 179,-547.5 179,-511.5 55,-511.5"/>
<text text-anchor="middle" x="117" y="-525.8" font-family="Times,serif" font-size="14.00" fill="#000000">input_1: InputLayer</text>
</g>
<!-- 139848915610480 -->
<g id="node2" class="node">
<title>139848915610480</title>
<polygon fill="none" stroke="#000000" points="56,-438.5 56,-474.5 178,-474.5 178,-438.5 56,-438.5"/>
<text text-anchor="middle" x="117" y="-452.8" font-family="Times,serif" font-size="14.00" fill="#000000">conv2d_1: Conv2D</text>
</g>
<!-- 139854679067392&#45;&gt;139848915610480 -->
<g id="edge1" class="edge">
<title>139854679067392&#45;&gt;139848915610480</title>
<path fill="none" stroke="#000000" d="M117,-511.4551C117,-503.3828 117,-493.6764 117,-484.6817"/>
<polygon fill="#000000" stroke="#000000" points="120.5001,-484.5903 117,-474.5904 113.5001,-484.5904 120.5001,-484.5903"/>
</g>
<!-- 139848915610088 -->
<g id="node3" class="node">
<title>139848915610088</title>
<polygon fill="none" stroke="#000000" points="41.5,-365.5 41.5,-401.5 192.5,-401.5 192.5,-365.5 41.5,-365.5"/>
<text text-anchor="middle" x="117" y="-379.8" font-family="Times,serif" font-size="14.00" fill="#000000">encoder: MaxPooling2D</text>
</g>
<!-- 139848915610480&#45;&gt;139848915610088 -->
<g id="edge2" class="edge">
<title>139848915610480&#45;&gt;139848915610088</title>
<path fill="none" stroke="#000000" d="M117,-438.4551C117,-430.3828 117,-420.6764 117,-411.6817"/>
<polygon fill="#000000" stroke="#000000" points="120.5001,-411.5903 117,-401.5904 113.5001,-411.5904 120.5001,-411.5903"/>
</g>
<!-- 139848915610424 -->
<g id="node4" class="node">
<title>139848915610424</title>
<polygon fill="none" stroke="#000000" points="0,-292.5 0,-328.5 234,-328.5 234,-292.5 0,-292.5"/>
<text text-anchor="middle" x="117" y="-306.8" font-family="Times,serif" font-size="14.00" fill="#000000">spatial_dropout2d_1: SpatialDropout2D</text>
</g>
<!-- 139848915610088&#45;&gt;139848915610424 -->
<g id="edge3" class="edge">
<title>139848915610088&#45;&gt;139848915610424</title>
<path fill="none" stroke="#000000" d="M117,-365.4551C117,-357.3828 117,-347.6764 117,-338.6817"/>
<polygon fill="#000000" stroke="#000000" points="120.5001,-338.5903 117,-328.5904 113.5001,-338.5904 120.5001,-338.5903"/>
</g>
<!-- 139850604487176 -->
<g id="node5" class="node">
<title>139850604487176</title>
<polygon fill="none" stroke="#000000" points="56,-219.5 56,-255.5 178,-255.5 178,-219.5 56,-219.5"/>
<text text-anchor="middle" x="117" y="-233.8" font-family="Times,serif" font-size="14.00" fill="#000000">conv2d_2: Conv2D</text>
</g>
<!-- 139848915610424&#45;&gt;139850604487176 -->
<g id="edge4" class="edge">
<title>139848915610424&#45;&gt;139850604487176</title>
<path fill="none" stroke="#000000" d="M117,-292.4551C117,-284.3828 117,-274.6764 117,-265.6817"/>
<polygon fill="#000000" stroke="#000000" points="120.5001,-265.5903 117,-255.5904 113.5001,-265.5904 120.5001,-265.5903"/>
</g>
<!-- 139850604586712 -->
<g id="node6" class="node">
<title>139850604586712</title>
<polygon fill="none" stroke="#000000" points="14,-146.5 14,-182.5 220,-182.5 220,-146.5 14,-146.5"/>
<text text-anchor="middle" x="117" y="-160.8" font-family="Times,serif" font-size="14.00" fill="#000000">up_sampling2d_1: UpSampling2D</text>
</g>
<!-- 139850604487176&#45;&gt;139850604586712 -->
<g id="edge5" class="edge">
<title>139850604487176&#45;&gt;139850604586712</title>
<path fill="none" stroke="#000000" d="M117,-219.4551C117,-211.3828 117,-201.6764 117,-192.6817"/>
<polygon fill="#000000" stroke="#000000" points="120.5001,-192.5903 117,-182.5904 113.5001,-192.5904 120.5001,-192.5903"/>
</g>
<!-- 139850604587496 -->
<g id="node7" class="node">
<title>139850604587496</title>
<polygon fill="none" stroke="#000000" points="0,-73.5 0,-109.5 234,-109.5 234,-73.5 0,-73.5"/>
<text text-anchor="middle" x="117" y="-87.8" font-family="Times,serif" font-size="14.00" fill="#000000">spatial_dropout2d_2: SpatialDropout2D</text>
</g>
<!-- 139850604586712&#45;&gt;139850604587496 -->
<g id="edge6" class="edge">
<title>139850604586712&#45;&gt;139850604587496</title>
<path fill="none" stroke="#000000" d="M117,-146.4551C117,-138.3828 117,-128.6764 117,-119.6817"/>
<polygon fill="#000000" stroke="#000000" points="120.5001,-119.5903 117,-109.5904 113.5001,-119.5904 120.5001,-119.5903"/>
</g>
<!-- 139850604586936 -->
<g id="node8" class="node">
<title>139850604586936</title>
<polygon fill="none" stroke="#000000" points="56,-.5 56,-36.5 178,-36.5 178,-.5 56,-.5"/>
<text text-anchor="middle" x="117" y="-14.8" font-family="Times,serif" font-size="14.00" fill="#000000">conv2d_3: Conv2D</text>
</g>
<!-- 139850604587496&#45;&gt;139850604586936 -->
<g id="edge7" class="edge">
<title>139850604587496&#45;&gt;139850604586936</title>
<path fill="none" stroke="#000000" d="M117,-73.4551C117,-65.3828 117,-55.6764 117,-46.6817"/>
<polygon fill="#000000" stroke="#000000" points="120.5001,-46.5903 117,-36.5904 113.5001,-46.5904 120.5001,-46.5903"/>
</g>
</g>
</svg>
