<?xml version="1.0" encoding="UTF-8" standalone="no"?>
<!DOCTYPE svg PUBLIC "-//W3C//DTD SVG 1.1//EN"
 "http://www.w3.org/Graphics/SVG/1.1/DTD/svg11.dtd">
<!-- Generated by graphviz version 2.40.1 (20161225.0304)
 -->
<!-- Title: G Pages: 1 -->
<svg width="242pt" height="1432pt"
 viewBox="0.00 0.00 242.00 1432.00" xmlns="http://www.w3.org/2000/svg" xmlns:xlink="http://www.w3.org/1999/xlink">
<g id="graph0" class="graph" transform="scale(1 1) rotate(0) translate(4 1428)">
<title>G</title>
<polygon fill="#ffffff" stroke="transparent" points="-4,4 -4,-1428 238,-1428 238,4 -4,4"/>
<!-- 140329493167464 -->
<g id="node1" class="node">
<title>140329493167464</title>
<polygon fill="none" stroke="#000000" points="55,-1387.5 55,-1423.5 179,-1423.5 179,-1387.5 55,-1387.5"/>
<text text-anchor="middle" x="117" y="-1401.8" font-family="Times,serif" font-size="14.00" fill="#000000">input_1: InputLayer</text>
</g>
<!-- 140326870388184 -->
<g id="node2" class="node">
<title>140326870388184</title>
<polygon fill="none" stroke="#000000" points="56,-1314.5 56,-1350.5 178,-1350.5 178,-1314.5 56,-1314.5"/>
<text text-anchor="middle" x="117" y="-1328.8" font-family="Times,serif" font-size="14.00" fill="#000000">conv2d_1: Conv2D</text>
</g>
<!-- 140329493167464&#45;&gt;140326870388184 -->
<g id="edge1" class="edge">
<title>140329493167464&#45;&gt;140326870388184</title>
<path fill="none" stroke="#000000" d="M117,-1387.4551C117,-1379.3828 117,-1369.6764 117,-1360.6817"/>
<polygon fill="#000000" stroke="#000000" points="120.5001,-1360.5903 117,-1350.5904 113.5001,-1360.5904 120.5001,-1360.5903"/>
</g>
<!-- 140326870387792 -->
<g id="node3" class="node">
<title>140326870387792</title>
<polygon fill="none" stroke="#000000" points="13.5,-1241.5 13.5,-1277.5 220.5,-1277.5 220.5,-1241.5 13.5,-1241.5"/>
<text text-anchor="middle" x="117" y="-1255.8" font-family="Times,serif" font-size="14.00" fill="#000000">max_pooling2d_1: MaxPooling2D</text>
</g>
<!-- 140326870388184&#45;&gt;140326870387792 -->
<g id="edge2" class="edge">
<title>140326870388184&#45;&gt;140326870387792</title>
<path fill="none" stroke="#000000" d="M117,-1314.4551C117,-1306.3828 117,-1296.6764 117,-1287.6817"/>
<polygon fill="#000000" stroke="#000000" points="120.5001,-1287.5903 117,-1277.5904 113.5001,-1287.5904 120.5001,-1287.5903"/>
</g>
<!-- 140326870388128 -->
<g id="node4" class="node">
<title>140326870388128</title>
<polygon fill="none" stroke="#000000" points="0,-1168.5 0,-1204.5 234,-1204.5 234,-1168.5 0,-1168.5"/>
<text text-anchor="middle" x="117" y="-1182.8" font-family="Times,serif" font-size="14.00" fill="#000000">spatial_dropout2d_1: SpatialDropout2D</text>
</g>
<!-- 140326870387792&#45;&gt;140326870388128 -->
<g id="edge3" class="edge">
<title>140326870387792&#45;&gt;140326870388128</title>
<path fill="none" stroke="#000000" d="M117,-1241.4551C117,-1233.3828 117,-1223.6764 117,-1214.6817"/>
<polygon fill="#000000" stroke="#000000" points="120.5001,-1214.5903 117,-1204.5904 113.5001,-1214.5904 120.5001,-1214.5903"/>
</g>
<!-- 140328816587888 -->
<g id="node5" class="node">
<title>140328816587888</title>
<polygon fill="none" stroke="#000000" points="56,-1095.5 56,-1131.5 178,-1131.5 178,-1095.5 56,-1095.5"/>
<text text-anchor="middle" x="117" y="-1109.8" font-family="Times,serif" font-size="14.00" fill="#000000">conv2d_2: Conv2D</text>
</g>
<!-- 140326870388128&#45;&gt;140328816587888 -->
<g id="edge4" class="edge">
<title>140326870388128&#45;&gt;140328816587888</title>
<path fill="none" stroke="#000000" d="M117,-1168.4551C117,-1160.3828 117,-1150.6764 117,-1141.6817"/>
<polygon fill="#000000" stroke="#000000" points="120.5001,-1141.5903 117,-1131.5904 113.5001,-1141.5904 120.5001,-1141.5903"/>
</g>
<!-- 140328816695504 -->
<g id="node6" class="node">
<title>140328816695504</title>
<polygon fill="none" stroke="#000000" points="13.5,-1022.5 13.5,-1058.5 220.5,-1058.5 220.5,-1022.5 13.5,-1022.5"/>
<text text-anchor="middle" x="117" y="-1036.8" font-family="Times,serif" font-size="14.00" fill="#000000">max_pooling2d_2: MaxPooling2D</text>
</g>
<!-- 140328816587888&#45;&gt;140328816695504 -->
<g id="edge5" class="edge">
<title>140328816587888&#45;&gt;140328816695504</title>
<path fill="none" stroke="#000000" d="M117,-1095.4551C117,-1087.3828 117,-1077.6764 117,-1068.6817"/>
<polygon fill="#000000" stroke="#000000" points="120.5001,-1068.5903 117,-1058.5904 113.5001,-1068.5904 120.5001,-1068.5903"/>
</g>
<!-- 140328816695616 -->
<g id="node7" class="node">
<title>140328816695616</title>
<polygon fill="none" stroke="#000000" points="0,-949.5 0,-985.5 234,-985.5 234,-949.5 0,-949.5"/>
<text text-anchor="middle" x="117" y="-963.8" font-family="Times,serif" font-size="14.00" fill="#000000">spatial_dropout2d_2: SpatialDropout2D</text>
</g>
<!-- 140328816695504&#45;&gt;140328816695616 -->
<g id="edge6" class="edge">
<title>140328816695504&#45;&gt;140328816695616</title>
<path fill="none" stroke="#000000" d="M117,-1022.4551C117,-1014.3828 117,-1004.6764 117,-995.6817"/>
<polygon fill="#000000" stroke="#000000" points="120.5001,-995.5903 117,-985.5904 113.5001,-995.5904 120.5001,-995.5903"/>
</g>
<!-- 140328805643488 -->
<g id="node8" class="node">
<title>140328805643488</title>
<polygon fill="none" stroke="#000000" points="56,-876.5 56,-912.5 178,-912.5 178,-876.5 56,-876.5"/>
<text text-anchor="middle" x="117" y="-890.8" font-family="Times,serif" font-size="14.00" fill="#000000">conv2d_3: Conv2D</text>
</g>
<!-- 140328816695616&#45;&gt;140328805643488 -->
<g id="edge7" class="edge">
<title>140328816695616&#45;&gt;140328805643488</title>
<path fill="none" stroke="#000000" d="M117,-949.4551C117,-941.3828 117,-931.6764 117,-922.6817"/>
<polygon fill="#000000" stroke="#000000" points="120.5001,-922.5903 117,-912.5904 113.5001,-922.5904 120.5001,-922.5903"/>
</g>
<!-- 140328805699656 -->
<g id="node9" class="node">
<title>140328805699656</title>
<polygon fill="none" stroke="#000000" points="41.5,-803.5 41.5,-839.5 192.5,-839.5 192.5,-803.5 41.5,-803.5"/>
<text text-anchor="middle" x="117" y="-817.8" font-family="Times,serif" font-size="14.00" fill="#000000">encoder: MaxPooling2D</text>
</g>
<!-- 140328805643488&#45;&gt;140328805699656 -->
<g id="edge8" class="edge">
<title>140328805643488&#45;&gt;140328805699656</title>
<path fill="none" stroke="#000000" d="M117,-876.4551C117,-868.3828 117,-858.6764 117,-849.6817"/>
<polygon fill="#000000" stroke="#000000" points="120.5001,-849.5903 117,-839.5904 113.5001,-849.5904 120.5001,-849.5903"/>
</g>
<!-- 140328805700440 -->
<g id="node10" class="node">
<title>140328805700440</title>
<polygon fill="none" stroke="#000000" points="0,-730.5 0,-766.5 234,-766.5 234,-730.5 0,-730.5"/>
<text text-anchor="middle" x="117" y="-744.8" font-family="Times,serif" font-size="14.00" fill="#000000">spatial_dropout2d_3: SpatialDropout2D</text>
</g>
<!-- 140328805699656&#45;&gt;140328805700440 -->
<g id="edge9" class="edge">
<title>140328805699656&#45;&gt;140328805700440</title>
<path fill="none" stroke="#000000" d="M117,-803.4551C117,-795.3828 117,-785.6764 117,-776.6817"/>
<polygon fill="#000000" stroke="#000000" points="120.5001,-776.5903 117,-766.5904 113.5001,-776.5904 120.5001,-776.5903"/>
</g>
<!-- 140328805702848 -->
<g id="node11" class="node">
<title>140328805702848</title>
<polygon fill="none" stroke="#000000" points="56,-657.5 56,-693.5 178,-693.5 178,-657.5 56,-657.5"/>
<text text-anchor="middle" x="117" y="-671.8" font-family="Times,serif" font-size="14.00" fill="#000000">conv2d_4: Conv2D</text>
</g>
<!-- 140328805700440&#45;&gt;140328805702848 -->
<g id="edge10" class="edge">
<title>140328805700440&#45;&gt;140328805702848</title>
<path fill="none" stroke="#000000" d="M117,-730.4551C117,-722.3828 117,-712.6764 117,-703.6817"/>
<polygon fill="#000000" stroke="#000000" points="120.5001,-703.5903 117,-693.5904 113.5001,-703.5904 120.5001,-703.5903"/>
</g>
<!-- 140328805760472 -->
<g id="node12" class="node">
<title>140328805760472</title>
<polygon fill="none" stroke="#000000" points="14,-584.5 14,-620.5 220,-620.5 220,-584.5 14,-584.5"/>
<text text-anchor="middle" x="117" y="-598.8" font-family="Times,serif" font-size="14.00" fill="#000000">up_sampling2d_1: UpSampling2D</text>
</g>
<!-- 140328805702848&#45;&gt;140328805760472 -->
<g id="edge11" class="edge">
<title>140328805702848&#45;&gt;140328805760472</title>
<path fill="none" stroke="#000000" d="M117,-657.4551C117,-649.3828 117,-639.6764 117,-630.6817"/>
<polygon fill="#000000" stroke="#000000" points="120.5001,-630.5903 117,-620.5904 113.5001,-630.5904 120.5001,-630.5903"/>
</g>
<!-- 140328805760584 -->
<g id="node13" class="node">
<title>140328805760584</title>
<polygon fill="none" stroke="#000000" points="0,-511.5 0,-547.5 234,-547.5 234,-511.5 0,-511.5"/>
<text text-anchor="middle" x="117" y="-525.8" font-family="Times,serif" font-size="14.00" fill="#000000">spatial_dropout2d_4: SpatialDropout2D</text>
</g>
<!-- 140328805760472&#45;&gt;140328805760584 -->
<g id="edge12" class="edge">
<title>140328805760472&#45;&gt;140328805760584</title>
<path fill="none" stroke="#000000" d="M117,-584.4551C117,-576.3828 117,-566.6764 117,-557.6817"/>
<polygon fill="#000000" stroke="#000000" points="120.5001,-557.5903 117,-547.5904 113.5001,-557.5904 120.5001,-557.5903"/>
</g>
<!-- 140328805760640 -->
<g id="node14" class="node">
<title>140328805760640</title>
<polygon fill="none" stroke="#000000" points="56,-438.5 56,-474.5 178,-474.5 178,-438.5 56,-438.5"/>
<text text-anchor="middle" x="117" y="-452.8" font-family="Times,serif" font-size="14.00" fill="#000000">conv2d_5: Conv2D</text>
</g>
<!-- 140328805760584&#45;&gt;140328805760640 -->
<g id="edge13" class="edge">
<title>140328805760584&#45;&gt;140328805760640</title>
<path fill="none" stroke="#000000" d="M117,-511.4551C117,-503.3828 117,-493.6764 117,-484.6817"/>
<polygon fill="#000000" stroke="#000000" points="120.5001,-484.5903 117,-474.5904 113.5001,-484.5904 120.5001,-484.5903"/>
</g>
<!-- 140328805351496 -->
<g id="node15" class="node">
<title>140328805351496</title>
<polygon fill="none" stroke="#000000" points="14,-365.5 14,-401.5 220,-401.5 220,-365.5 14,-365.5"/>
<text text-anchor="middle" x="117" y="-379.8" font-family="Times,serif" font-size="14.00" fill="#000000">up_sampling2d_2: UpSampling2D</text>
</g>
<!-- 140328805760640&#45;&gt;140328805351496 -->
<g id="edge14" class="edge">
<title>140328805760640&#45;&gt;140328805351496</title>
<path fill="none" stroke="#000000" d="M117,-438.4551C117,-430.3828 117,-420.6764 117,-411.6817"/>
<polygon fill="#000000" stroke="#000000" points="120.5001,-411.5903 117,-401.5904 113.5001,-411.5904 120.5001,-411.5903"/>
</g>
<!-- 140328805354408 -->
<g id="node16" class="node">
<title>140328805354408</title>
<polygon fill="none" stroke="#000000" points="0,-292.5 0,-328.5 234,-328.5 234,-292.5 0,-292.5"/>
<text text-anchor="middle" x="117" y="-306.8" font-family="Times,serif" font-size="14.00" fill="#000000">spatial_dropout2d_5: SpatialDropout2D</text>
</g>
<!-- 140328805351496&#45;&gt;140328805354408 -->
<g id="edge15" class="edge">
<title>140328805351496&#45;&gt;140328805354408</title>
<path fill="none" stroke="#000000" d="M117,-365.4551C117,-357.3828 117,-347.6764 117,-338.6817"/>
<polygon fill="#000000" stroke="#000000" points="120.5001,-338.5903 117,-328.5904 113.5001,-338.5904 120.5001,-338.5903"/>
</g>
<!-- 140328805355360 -->
<g id="node17" class="node">
<title>140328805355360</title>
<polygon fill="none" stroke="#000000" points="56,-219.5 56,-255.5 178,-255.5 178,-219.5 56,-219.5"/>
<text text-anchor="middle" x="117" y="-233.8" font-family="Times,serif" font-size="14.00" fill="#000000">conv2d_6: Conv2D</text>
</g>
<!-- 140328805354408&#45;&gt;140328805355360 -->
<g id="edge16" class="edge">
<title>140328805354408&#45;&gt;140328805355360</title>
<path fill="none" stroke="#000000" d="M117,-292.4551C117,-284.3828 117,-274.6764 117,-265.6817"/>
<polygon fill="#000000" stroke="#000000" points="120.5001,-265.5903 117,-255.5904 113.5001,-265.5904 120.5001,-265.5903"/>
</g>
<!-- 140328805484528 -->
<g id="node18" class="node">
<title>140328805484528</title>
<polygon fill="none" stroke="#000000" points="14,-146.5 14,-182.5 220,-182.5 220,-146.5 14,-146.5"/>
<text text-anchor="middle" x="117" y="-160.8" font-family="Times,serif" font-size="14.00" fill="#000000">up_sampling2d_3: UpSampling2D</text>
</g>
<!-- 140328805355360&#45;&gt;140328805484528 -->
<g id="edge17" class="edge">
<title>140328805355360&#45;&gt;140328805484528</title>
<path fill="none" stroke="#000000" d="M117,-219.4551C117,-211.3828 117,-201.6764 117,-192.6817"/>
<polygon fill="#000000" stroke="#000000" points="120.5001,-192.5903 117,-182.5904 113.5001,-192.5904 120.5001,-192.5903"/>
</g>
<!-- 140328805484920 -->
<g id="node19" class="node">
<title>140328805484920</title>
<polygon fill="none" stroke="#000000" points="0,-73.5 0,-109.5 234,-109.5 234,-73.5 0,-73.5"/>
<text text-anchor="middle" x="117" y="-87.8" font-family="Times,serif" font-size="14.00" fill="#000000">spatial_dropout2d_6: SpatialDropout2D</text>
</g>
<!-- 140328805484528&#45;&gt;140328805484920 -->
<g id="edge18" class="edge">
<title>140328805484528&#45;&gt;140328805484920</title>
<path fill="none" stroke="#000000" d="M117,-146.4551C117,-138.3828 117,-128.6764 117,-119.6817"/>
<polygon fill="#000000" stroke="#000000" points="120.5001,-119.5903 117,-109.5904 113.5001,-119.5904 120.5001,-119.5903"/>
</g>
<!-- 140328805485984 -->
<g id="node20" class="node">
<title>140328805485984</title>
<polygon fill="none" stroke="#000000" points="56,-.5 56,-36.5 178,-36.5 178,-.5 56,-.5"/>
<text text-anchor="middle" x="117" y="-14.8" font-family="Times,serif" font-size="14.00" fill="#000000">conv2d_7: Conv2D</text>
</g>
<!-- 140328805484920&#45;&gt;140328805485984 -->
<g id="edge19" class="edge">
<title>140328805484920&#45;&gt;140328805485984</title>
<path fill="none" stroke="#000000" d="M117,-73.4551C117,-65.3828 117,-55.6764 117,-46.6817"/>
<polygon fill="#000000" stroke="#000000" points="120.5001,-46.5903 117,-36.5904 113.5001,-46.5904 120.5001,-46.5903"/>
</g>
</g>
</svg>
